<svg width="102" height="42" viewBox="0 0 102 42" fill="none" xmlns="http://www.w3.org/2000/svg"><path d="M14.46 16.532v-1.628a14.312 14.312 0 0 0-1.72-.113C5.725 14.791 0 20.491 0 27.524c0 4.298 2.15 8.12 5.431 10.427a12.643 12.643 0 0 1-3.417-8.662c.023-6.944 5.567-12.598 12.446-12.757z" fill="#00FAF0"/><path d="M14.755 35.057c3.123 0 5.68-2.488 5.793-5.587V1.764h5.069A8.974 8.974 0 0 1 25.458 0h-6.924v27.706c-.113 3.099-2.67 5.586-5.793 5.586a5.66 5.66 0 0 1-2.693-.678 5.768 5.768 0 0 0 4.707 2.443zM35.097 11.173V9.635a9.544 9.544 0 0 1-5.25-1.56 9.834 9.834 0 0 0 5.25 3.098z" fill="#00FAF0"/><path d="M29.87 8.076c-1.47-1.696-2.376-3.89-2.376-6.31H25.64a9.733 9.733 0 0 0 4.231 6.31zM12.74 21.69a5.812 5.812 0 0 0-5.815 5.813c0 2.239 1.267 4.161 3.123 5.134a5.847 5.847 0 0 1-1.11-3.393 5.812 5.812 0 0 1 5.817-5.813c.588 0 1.176.09 1.72.272v-7.057a14.313 14.313 0 0 0-1.72-.113h-.295v5.428a5.373 5.373 0 0 0-1.72-.271z" fill="#FF0050"/><path d="M35.099 11.173v5.383a16.43 16.43 0 0 1-9.618-3.099v14.045c0 7.012-5.703 12.734-12.74 12.734-2.716 0-5.228-.86-7.287-2.307C7.784 40.417 11.09 42 14.777 42c7.016 0 12.74-5.7 12.74-12.733V15.22a16.483 16.483 0 0 0 9.618 3.099v-6.921c-.701-.023-1.38-.09-2.036-.226z" fill="#FF0050"/><path d="M25.479 27.503V13.458a16.483 16.483 0 0 0 9.617 3.098v-5.383a9.75 9.75 0 0 1-5.25-3.098 9.516 9.516 0 0 1-4.209-6.31h-5.069V29.47c-.113 3.098-2.67 5.586-5.793 5.586a5.746 5.746 0 0 1-4.707-2.42c-1.855-.973-3.122-2.918-3.122-5.134a5.812 5.812 0 0 1 5.815-5.813c.589 0 1.177.09 1.72.272v-5.428c-6.88.158-12.423 5.812-12.423 12.71 0 3.348 1.29 6.401 3.417 8.663a12.684 12.684 0 0 0 7.286 2.307c6.993.022 12.718-5.7 12.718-12.711zM51.798 9.951h-2.942v4.32H45.44v2.94h3.416v5.994l-3.416.497v3.099l3.416-.498v5.134c0 .408-.339.747-.746.747h-2.467v2.94h3.689a2.472 2.472 0 0 0 2.466-2.465v-6.785l2.987-.453v-3.098l-2.987.452v-5.541h2.987v-2.94h-2.987V9.95zM68.455 9.951h-2.92v15.357l-9.684.837v3.099l9.685-.815v6.899h2.92v-7.17l2.986-.271v-3.099l-2.987.271V9.951z" fill="#000"/><path d="M64.019 13.367l-6.948-1.244v3.121l6.948 1.221v-3.098zM64.019 19.812l-6.948-1.244v3.121l6.948 1.244v-3.12zM95.314 18.523l.453-2.397h-3.1l-.475 2.397H84.09l-.362-2.397h-3.123l.385 2.397h-5.884v2.873h25.956v-2.873h-5.748zM100.248 11.987h-9.843l-.498-2.036h-3.825l.498 2.036H75.922v2.85h24.326v-2.85zM96.242 23.5H79.927a2.472 2.472 0 0 0-2.467 2.465v6.718a2.472 2.472 0 0 0 2.467 2.465h16.315a2.472 2.472 0 0 0 2.467-2.465v-6.718a2.457 2.457 0 0 0-2.467-2.465zm-15.275 2.669h14.257c.407 0 .747.34.747.746v1.199H80.243v-1.199c-.022-.43.317-.746.725-.746zm14.257 6.333H80.967a.753.753 0 0 1-.746-.747v-1.221h15.727v1.221a.734.734 0 0 1-.724.747z" fill="#000"/></svg>